G04 #@! TF.FileFunction,Copper,L1,Top,Signal*
%FSLAX46Y46*%
G04 Gerber Fmt 4.6, Leading zero omitted, Abs format (unit mm)*
G04 Created by KiCad (PCBNEW 4.0.7-e2-6376~58~ubuntu16.04.1) date Fri Dec 15 23:42:03 2017*
%MOMM*%
%LPD*%
G01*
G04 APERTURE LIST*
%ADD10C,0.100000*%
%ADD11R,1.500000X1.300000*%
%ADD12R,5.000000X5.000000*%
%ADD13C,0.600000*%
%ADD14C,0.250000*%
%ADD15C,5.000000*%
%ADD16C,1.000000*%
G04 APERTURE END LIST*
D10*
D11*
X-25850000Y12000000D03*
X-23150000Y12000000D03*
X89850000Y4000000D03*
X87150000Y4000000D03*
X82350000Y4000000D03*
X79650000Y4000000D03*
X23150000Y-4000000D03*
X25850000Y-4000000D03*
X-82350000Y-4000000D03*
X-79650000Y-4000000D03*
X-79650000Y-12000000D03*
X-82350000Y-12000000D03*
X-82350000Y12000000D03*
X-79650000Y12000000D03*
X33350000Y4000000D03*
X30650000Y4000000D03*
X-30650000Y4000000D03*
X-33350000Y4000000D03*
X-33350000Y-4000000D03*
X-30650000Y-4000000D03*
X-25850000Y-4000000D03*
X-23150000Y-4000000D03*
X-23150000Y-12000000D03*
X-25850000Y-12000000D03*
X30650000Y12000000D03*
X33350000Y12000000D03*
X-23150000Y4000000D03*
X-25850000Y4000000D03*
X-87150000Y4000000D03*
X-89850000Y4000000D03*
X79650000Y-4000000D03*
X82350000Y-4000000D03*
X87150000Y-4000000D03*
X89850000Y-4000000D03*
X89850000Y-12000000D03*
X87150000Y-12000000D03*
X87150000Y12000000D03*
X89850000Y12000000D03*
X-79650000Y4000000D03*
X-82350000Y4000000D03*
X25850000Y4000000D03*
X23150000Y4000000D03*
X-89850000Y-4000000D03*
X-87150000Y-4000000D03*
X30650000Y-4000000D03*
X33350000Y-4000000D03*
X33350000Y-12000000D03*
X30650000Y-12000000D03*
X-33350000Y12000000D03*
X-30650000Y12000000D03*
X-30650000Y-12000000D03*
X-33350000Y-12000000D03*
X23150000Y12000000D03*
X25850000Y12000000D03*
X82350000Y-12000000D03*
X79650000Y-12000000D03*
X79650000Y12000000D03*
X82350000Y12000000D03*
X-87150000Y-12000000D03*
X-89850000Y-12000000D03*
X-89850000Y12000000D03*
X-87150000Y12000000D03*
X25850000Y-12000000D03*
X23150000Y-12000000D03*
D12*
X110500000Y8000000D03*
X-110500000Y0D03*
X-110500000Y-8000000D03*
X-110500000Y8000000D03*
X110500000Y0D03*
X110500000Y-8000000D03*
D13*
X28250000Y12000000D03*
X-28250000Y12000000D03*
X-84750000Y12000000D03*
X84750000Y12000000D03*
X84750000Y4000000D03*
X28250000Y4000000D03*
X-28250000Y4000000D03*
X-84750000Y4000000D03*
X84750000Y-4000000D03*
X28250000Y-4000000D03*
X-28250000Y-4000000D03*
X-84750000Y-4000000D03*
X84750000Y-12000000D03*
X28250000Y-12000000D03*
X-28250000Y-12000000D03*
X-84750000Y-12000000D03*
D14*
X30650000Y12000000D02*
X28250000Y12000000D01*
X25850000Y12000000D02*
X28250000Y12000000D01*
X-25850000Y12000000D02*
X-28250000Y12000000D01*
X-30650000Y12000000D02*
X-28250000Y12000000D01*
X-82350000Y12000000D02*
X-84750000Y12000000D01*
X-87150000Y12000000D02*
X-84750000Y12000000D01*
X82350000Y12000000D02*
X84750000Y12000000D01*
X87150000Y12000000D02*
X84750000Y12000000D01*
X89850000Y4000000D02*
X92250000Y4000000D01*
X92250000Y4000000D02*
X92250000Y8000000D01*
X92250000Y8000000D02*
X92250000Y7250000D01*
X92250000Y7250000D02*
X92250000Y8000000D01*
X35750000Y8000000D02*
X35750000Y4000000D01*
X35750000Y4000000D02*
X33350000Y4000000D01*
X-23150000Y4000000D02*
X-20750000Y4000000D01*
X-20750000Y4000000D02*
X-20750000Y8000000D01*
X-77250000Y8000000D02*
X-77250000Y4000000D01*
X-77250000Y4000000D02*
X-79650000Y4000000D01*
X-77250000Y8000000D02*
X-77250000Y8750000D01*
X-23150000Y12000000D02*
X-20750000Y12000000D01*
X-20750000Y12000000D02*
X-20750000Y8000000D01*
X-77250000Y8000000D02*
X-77250000Y8750000D01*
X-77250000Y8750000D02*
X-77250000Y12000000D01*
X-77250000Y12000000D02*
X-79650000Y12000000D01*
X35750000Y12000000D02*
X35750000Y8000000D01*
X33350000Y12000000D02*
X35750000Y12000000D01*
X36000000Y8250000D02*
X36000000Y8000000D01*
X35750000Y8000000D02*
X36000000Y8250000D01*
X92250000Y8000000D02*
X92250000Y12000000D01*
X92250000Y12000000D02*
X89850000Y12000000D01*
D15*
X110500000Y8000000D02*
X92250000Y8000000D01*
X92250000Y8000000D02*
X92250000Y8000000D01*
X92250000Y8000000D02*
X36000000Y8000000D01*
X36000000Y8000000D02*
X-20750000Y8000000D01*
X-20750000Y8000000D02*
X-77250000Y8000000D01*
X-77250000Y8000000D02*
X-110500000Y8000000D01*
D14*
X82350000Y4000000D02*
X84750000Y4000000D01*
X87150000Y4000000D02*
X84750000Y4000000D01*
X25850000Y4000000D02*
X28250000Y4000000D01*
X30650000Y4000000D02*
X28250000Y4000000D01*
X-30650000Y4000000D02*
X-28250000Y4000000D01*
X-25850000Y4000000D02*
X-28250000Y4000000D01*
X-87150000Y4000000D02*
X-84750000Y4000000D01*
X-82350000Y4000000D02*
X-84750000Y4000000D01*
X79650000Y-4000000D02*
X77250000Y-4000000D01*
X77250000Y-4000000D02*
X77250000Y0D01*
X77250000Y0D02*
X77250000Y250000D01*
X23150000Y-4000000D02*
X20750000Y-4000000D01*
X20750000Y-4000000D02*
X20750000Y0D01*
X20750000Y0D02*
X20750000Y-2250000D01*
X20750000Y-2250000D02*
X20750000Y0D01*
X-33350000Y-4000000D02*
X-35750000Y-4000000D01*
X-35750000Y-4000000D02*
X-35750000Y0D01*
X-35750000Y0D02*
X-35750000Y-1250000D01*
X-35750000Y-1250000D02*
X-35750000Y0D01*
X-89850000Y-4000000D02*
X-92250000Y-4000000D01*
X-92250000Y-4000000D02*
X-92250000Y0D01*
X-92250000Y0D02*
X-92250000Y-500000D01*
X-92250000Y-500000D02*
X-92250000Y0D01*
X79650000Y4000000D02*
X77250000Y4000000D01*
X77250000Y4000000D02*
X77250000Y250000D01*
X77250000Y250000D02*
X77250000Y0D01*
X77250000Y0D02*
X77250000Y2000000D01*
X77250000Y2000000D02*
X77250000Y0D01*
X23150000Y4000000D02*
X20750000Y4000000D01*
X20750000Y4000000D02*
X20750000Y0D01*
X20750000Y0D02*
X20750000Y1500000D01*
X20750000Y1500000D02*
X20750000Y0D01*
X-33350000Y4000000D02*
X-35750000Y4000000D01*
X-35750000Y4000000D02*
X-35750000Y0D01*
X-35750000Y0D02*
X-35750000Y1000000D01*
X-35750000Y1000000D02*
X-35750000Y0D01*
X-92250000Y0D02*
X-92250000Y4000000D01*
X-92250000Y4000000D02*
X-89850000Y4000000D01*
X-92250000Y0D02*
X-92250000Y1500000D01*
X-92250000Y1500000D02*
X-92250000Y0D01*
D15*
X-110500000Y0D02*
X-92250000Y0D01*
X-92250000Y0D02*
X-92250000Y0D01*
X-92250000Y0D02*
X-35750000Y0D01*
X-35750000Y0D02*
X-35750000Y0D01*
X-35750000Y0D02*
X20750000Y0D01*
X20750000Y0D02*
X20750000Y0D01*
X20750000Y0D02*
X77250000Y0D01*
X77250000Y0D02*
X110500000Y0D01*
D14*
X82350000Y-4000000D02*
X84750000Y-4000000D01*
X87150000Y-4000000D02*
X84750000Y-4000000D01*
X28250000Y-4000000D02*
X25850000Y-4000000D01*
X30650000Y-4000000D02*
X28250000Y-4000000D01*
X-25850000Y-4000000D02*
X-28250000Y-4000000D01*
X-30650000Y-4000000D02*
X-28250000Y-4000000D01*
X-87150000Y-4000000D02*
X-84750000Y-4000000D01*
X-82350000Y-4000000D02*
X-84750000Y-4000000D01*
X89850000Y-12000000D02*
X92250000Y-12000000D01*
X92250000Y-12000000D02*
X92250000Y-8000000D01*
X92250000Y-8000000D02*
X92250000Y-9250000D01*
X92250000Y-9250000D02*
X92250000Y-8000000D01*
X33350000Y-12000000D02*
X35750000Y-12000000D01*
X35750000Y-12000000D02*
X35750000Y-8000000D01*
X35750000Y-8000000D02*
X35750000Y-8250000D01*
X35750000Y-8250000D02*
X35750000Y-8000000D01*
X-23150000Y-12000000D02*
X-20750000Y-12000000D01*
X-20750000Y-12000000D02*
X-20750000Y-8000000D01*
X-20750000Y-8000000D02*
X-20750000Y-8250000D01*
X-20750000Y-8250000D02*
X-20750000Y-8000000D01*
X-79650000Y-12000000D02*
X-77250000Y-12000000D01*
X-77250000Y-12000000D02*
X-77250000Y-8000000D01*
X-77250000Y-8000000D02*
X-77250000Y-7750000D01*
X89850000Y-4000000D02*
X92250000Y-4000000D01*
X92250000Y-4000000D02*
X92250000Y-8000000D01*
X92250000Y-8000000D02*
X92250000Y-5750000D01*
X92250000Y-5750000D02*
X92250000Y-8000000D01*
X33350000Y-4000000D02*
X35750000Y-4000000D01*
X35750000Y-4000000D02*
X35750000Y-8000000D01*
X35750000Y-8000000D02*
X35750000Y-7750000D01*
X35750000Y-7750000D02*
X35750000Y-8000000D01*
X-23150000Y-4000000D02*
X-20750000Y-4000000D01*
X-21000000Y-6750000D02*
X-21000000Y-8000000D01*
X-21000000Y-7750000D02*
X-21000000Y-6750000D01*
X-20750000Y-8000000D02*
X-21000000Y-7750000D01*
X-20750000Y-4000000D02*
X-20750000Y-8000000D01*
X-79650000Y-4000000D02*
X-77250000Y-4000000D01*
X-77250000Y-4000000D02*
X-77250000Y-7750000D01*
X-77250000Y-7750000D02*
X-77250000Y-8000000D01*
X-77250000Y-8000000D02*
X-77250000Y-6000000D01*
X-77250000Y-6000000D02*
X-77250000Y-8000000D01*
D15*
X110500000Y-8000000D02*
X92250000Y-8000000D01*
X92250000Y-8000000D02*
X92250000Y-8000000D01*
X92250000Y-8000000D02*
X35750000Y-8000000D01*
X35750000Y-8000000D02*
X35750000Y-8000000D01*
X35750000Y-8000000D02*
X-20750000Y-8000000D01*
X-20750000Y-8000000D02*
X-21000000Y-8000000D01*
X-21000000Y-8000000D02*
X-77250000Y-8000000D01*
X-77250000Y-8000000D02*
X-110500000Y-8000000D01*
D14*
X84750000Y-12000000D02*
X82350000Y-12000000D01*
X87150000Y-12000000D02*
X84750000Y-12000000D01*
X25850000Y-12000000D02*
X28250000Y-12000000D01*
X30650000Y-12000000D02*
X28250000Y-12000000D01*
X-28250000Y-12000000D02*
X-30650000Y-12000000D01*
X-25850000Y-12000000D02*
X-28250000Y-12000000D01*
X-84750000Y-12000000D02*
X-87150000Y-12000000D01*
X-82350000Y-12000000D02*
X-84750000Y-12000000D01*
D16*
X-93750000Y12000000D02*
X-93000000Y12000000D01*
D14*
X-92250000Y12000000D02*
X-93000000Y12000000D01*
X-93750000Y12000000D02*
X-93000000Y12000000D01*
X-33350000Y12000000D02*
X-35750000Y12000000D01*
X-35750000Y12000000D02*
X-35750000Y14500000D01*
X23150000Y12000000D02*
X20750000Y12000000D01*
X20750000Y12000000D02*
X20750000Y14500000D01*
X79650000Y12000000D02*
X77250000Y12000000D01*
X-92250000Y12500000D02*
X-90250000Y14500000D01*
X-90250000Y14500000D02*
X-35750000Y14500000D01*
X-35750000Y14500000D02*
X20750000Y14500000D01*
X20750000Y14500000D02*
X75250000Y14500000D01*
X-92250000Y12000000D02*
X-89850000Y12000000D01*
X-92250000Y12000000D02*
X-92250000Y12500000D01*
X77250000Y12500000D02*
X75250000Y14500000D01*
X77250000Y12000000D02*
X77250000Y12500000D01*
D16*
X-93750000Y-12000000D02*
X-93000000Y-12000000D01*
D14*
X-92250000Y-12000000D02*
X-93000000Y-12000000D01*
X-93750000Y-12000000D02*
X-93000000Y-12000000D01*
X-35750000Y-14500000D02*
X20750000Y-14500000D01*
X20750000Y-12000000D02*
X20750000Y-14500000D01*
X20750000Y-12000000D02*
X23150000Y-12000000D01*
X-90250000Y-14500000D02*
X-35750000Y-14500000D01*
X-35750000Y-12000000D02*
X-35750000Y-14500000D01*
X-35750000Y-12000000D02*
X-33350000Y-12000000D01*
X-92250000Y-12000000D02*
X-92250000Y-12500000D01*
X-92250000Y-12500000D02*
X-90250000Y-14500000D01*
X-89850000Y-12000000D02*
X-92250000Y-12000000D01*
X-90250000Y-14500000D02*
X75250000Y-14500000D01*
X-90250000Y-14500000D02*
X-92250000Y-12500000D01*
X79650000Y-12000000D02*
X77250000Y-12000000D01*
X77250000Y-12500000D02*
X75250000Y-14500000D01*
X77250000Y-12000000D02*
X77250000Y-12500000D01*
M02*
